<svg width="61" height="61" viewBox="0 0 61 61" fill="none" xmlns="http://www.w3.org/2000/svg">
<path d="M30.5 19.0625C28.2379 19.0625 26.0266 19.7333 24.1457 20.9901C22.2648 22.2468 20.7988 24.0331 19.9331 26.1231C19.0675 28.213 18.841 30.5127 19.2823 32.7313C19.7236 34.95 20.8129 36.988 22.4125 38.5875C24.012 40.1871 26.05 41.2764 28.2687 41.7177C30.4873 42.159 32.787 41.9326 34.8769 41.0669C36.9669 40.2012 38.7532 38.7352 40.0099 36.8543C41.2667 34.9734 41.9375 32.7621 41.9375 30.5C41.9343 27.4676 40.7283 24.5602 38.5841 22.4159C36.4398 20.2717 33.5324 19.0657 30.5 19.0625ZM30.5 38.125C28.9919 38.125 27.5177 37.6778 26.2638 36.84C25.0099 36.0021 24.0325 34.8112 23.4554 33.418C22.8783 32.0247 22.7273 30.4915 23.0215 29.0124C23.3157 27.5333 24.0419 26.1747 25.1083 25.1083C26.1747 24.0419 27.5333 23.3157 29.0124 23.0215C30.4915 22.7273 32.0247 22.8783 33.418 23.4554C34.8112 24.0325 36.0021 25.0099 36.84 26.2638C37.6778 27.5177 38.125 28.9919 38.125 30.5C38.125 32.5223 37.3217 34.4617 35.8917 35.8917C34.4617 37.3217 32.5223 38.125 30.5 38.125ZM41.9375 5.71875H19.0625C15.5247 5.72253 12.1328 7.12961 9.63122 9.63122C7.12961 12.1328 5.72253 15.5247 5.71875 19.0625V41.9375C5.72253 45.4753 7.12961 48.8672 9.63122 51.3688C12.1328 53.8704 15.5247 55.2775 19.0625 55.2812H41.9375C45.4753 55.2775 48.8672 53.8704 51.3688 51.3688C53.8704 48.8672 55.2775 45.4753 55.2812 41.9375V19.0625C55.2775 15.5247 53.8704 12.1328 51.3688 9.63122C48.8672 7.12961 45.4753 5.72253 41.9375 5.71875ZM51.4688 41.9375C51.4688 44.4653 50.4646 46.8897 48.6771 48.6771C46.8897 50.4646 44.4653 51.4688 41.9375 51.4688H19.0625C16.5347 51.4688 14.1103 50.4646 12.3229 48.6771C10.5354 46.8897 9.53125 44.4653 9.53125 41.9375V19.0625C9.53125 16.5347 10.5354 14.1103 12.3229 12.3229C14.1103 10.5354 16.5347 9.53125 19.0625 9.53125H41.9375C44.4653 9.53125 46.8897 10.5354 48.6771 12.3229C50.4646 14.1103 51.4688 16.5347 51.4688 19.0625V41.9375ZM45.75 18.1094C45.75 18.6749 45.5823 19.2277 45.2681 19.698C44.9539 20.1682 44.5073 20.5347 43.9849 20.7511C43.4624 20.9675 42.8875 21.0241 42.3328 20.9138C41.7781 20.8035 41.2686 20.5311 40.8687 20.1313C40.4689 19.7314 40.1965 19.2219 40.0862 18.6672C39.9759 18.1125 40.0325 17.5376 40.2489 17.0151C40.4653 16.4927 40.8318 16.0461 41.302 15.7319C41.7723 15.4177 42.3251 15.25 42.8906 15.25C43.649 15.25 44.3763 15.5513 44.9125 16.0875C45.4487 16.6237 45.75 17.351 45.75 18.1094Z" fill="black"/>
</svg>
