<svg width="62" height="61" viewBox="0 0 62 61" fill="none" xmlns="http://www.w3.org/2000/svg">
<path d="M30.8334 5.71875C25.9321 5.71875 21.1409 7.17215 17.0657 9.89514C12.9904 12.6181 9.81413 16.4884 7.9385 21.0166C6.06286 25.5448 5.57211 30.5275 6.5283 35.3346C7.48449 40.1417 9.84468 44.5573 13.3104 48.023C16.7761 51.4887 21.1917 53.8489 25.9988 54.8051C30.8059 55.7613 35.7886 55.2705 40.3168 53.3949C44.8449 51.5193 48.7152 48.343 51.4382 44.2677C54.1612 40.1925 55.6146 35.4013 55.6146 30.5C55.6077 23.9297 52.9946 17.6306 48.3487 12.9847C43.7028 8.33879 37.4037 5.72569 30.8334 5.71875ZM32.7396 51.3806V36.2188H38.4584C38.964 36.2188 39.4488 36.0179 39.8063 35.6604C40.1638 35.3029 40.3646 34.8181 40.3646 34.3125C40.3646 33.8069 40.1638 33.3221 39.8063 32.9646C39.4488 32.6071 38.964 32.4062 38.4584 32.4062H32.7396V26.6875C32.7396 25.6764 33.1413 24.7066 33.8563 23.9917C34.5713 23.2767 35.541 22.875 36.5521 22.875H40.3646C40.8702 22.875 41.3551 22.6742 41.7126 22.3167C42.07 21.9592 42.2709 21.4743 42.2709 20.9688C42.2709 20.4632 42.07 19.9783 41.7126 19.6208C41.3551 19.2633 40.8702 19.0625 40.3646 19.0625H36.5521C34.5299 19.0625 32.5904 19.8658 31.1604 21.2958C29.7305 22.7258 28.9271 24.6652 28.9271 26.6875V32.4062H23.2084C22.7028 32.4062 22.218 32.6071 21.8605 32.9646C21.503 33.3221 21.3021 33.8069 21.3021 34.3125C21.3021 34.8181 21.503 35.3029 21.8605 35.6604C22.218 36.0179 22.7028 36.2188 23.2084 36.2188H28.9271V51.3806C23.5534 50.89 18.5756 48.3467 15.0292 44.2797C11.4828 40.2127 9.64082 34.935 9.88635 29.5445C10.1319 24.1541 12.4461 19.0657 16.3475 15.3379C20.2489 11.6102 25.4373 9.52991 30.8334 9.52991C36.2295 9.52991 41.4178 11.6102 45.3193 15.3379C49.2207 19.0657 51.5349 24.1541 51.7804 29.5445C52.0259 34.935 50.1839 40.2127 46.6375 44.2797C43.0911 48.3467 38.1134 50.89 32.7396 51.3806Z" fill="black"/>
</svg>
