<svg width="62" height="61" viewBox="0 0 62 61" fill="none" xmlns="http://www.w3.org/2000/svg">
<path d="M39.8496 28.9131L28.4121 21.2881C28.1249 21.0965 27.7912 20.9865 27.4464 20.9698C27.1016 20.9531 26.7587 21.0303 26.4544 21.1932C26.1501 21.3561 25.8957 21.5986 25.7184 21.8948C25.5412 22.191 25.4477 22.5298 25.4479 22.875V38.125C25.4477 38.4702 25.5412 38.809 25.7184 39.1052C25.8957 39.4014 26.1501 39.6439 26.4544 39.8068C26.7587 39.9697 27.1016 40.047 27.4464 40.0303C27.7912 40.0136 28.1249 39.9035 28.4121 39.712L39.8496 32.087C40.1111 31.913 40.3255 31.677 40.4738 31.4002C40.6221 31.1233 40.6997 30.8141 40.6997 30.5C40.6997 30.1859 40.6221 29.8767 40.4738 29.5998C40.3255 29.323 40.1111 29.0871 39.8496 28.9131ZM29.2604 34.5627V26.4492L35.3556 30.5L29.2604 34.5627ZM56.5031 16.5653C56.2785 15.6869 55.8484 14.8744 55.2481 14.195C54.6477 13.5155 53.8945 12.9885 53.0504 12.6575C44.8821 9.50267 31.8815 9.53126 31.1666 9.53126C30.4518 9.53126 17.4512 9.50267 9.28288 12.6575C8.4388 12.9885 7.68552 13.5155 7.0852 14.195C6.48487 14.8744 6.0547 15.6869 5.83018 16.5653C5.21303 18.9434 4.47913 23.2896 4.47913 30.5C4.47913 37.7104 5.21303 42.0567 5.83018 44.4347C6.05437 45.3136 6.48438 46.1265 7.08473 46.8064C7.68507 47.4863 8.43852 48.0136 9.28288 48.3449C17.108 51.3639 29.3557 51.4688 31.0094 51.4688H31.3239C32.9776 51.4688 45.2324 51.3639 53.0504 48.3449C53.8947 48.0136 54.6482 47.4863 55.2485 46.8064C55.8489 46.1265 56.2789 45.3136 56.5031 44.4347C57.1202 42.0519 57.8541 37.7104 57.8541 30.5C57.8541 23.2896 57.1202 18.9434 56.5031 16.5653ZM52.8121 43.4911C52.7395 43.7835 52.5986 44.0544 52.401 44.2818C52.2035 44.5092 51.9548 44.6865 51.6755 44.7993C44.1339 47.7111 31.3072 47.6586 31.1833 47.6586H31.1666C31.038 47.6586 18.2208 47.7063 10.6744 44.7993C10.3951 44.6865 10.1465 44.5092 9.94889 44.2818C9.75132 44.0544 9.61046 43.7835 9.53784 43.4911C8.95881 41.3156 8.29163 37.3077 8.29163 30.5C8.29163 23.6923 8.95881 19.6844 9.52116 17.5208C9.59243 17.2267 9.73268 16.9539 9.93033 16.7247C10.128 16.4956 10.3773 16.3168 10.6578 16.2031C17.9301 13.3938 30.1158 13.3438 31.1142 13.3438H31.1785C31.3072 13.3438 44.1363 13.3009 51.6707 16.2031C51.9501 16.3159 52.1987 16.4932 52.3963 16.7206C52.5938 16.948 52.7347 17.219 52.8073 17.5113C53.3744 19.6844 54.0416 23.6923 54.0416 30.5C54.0416 37.3077 53.3744 41.3156 52.8121 43.4792V43.4911Z" fill="black"/>
</svg>
